<svg xmlns="http://www.w3.org/2000/svg" width="48" height="48" viewBox="0 0 48 48">
  <g id="Pintrest_Group" data-name="Pintrest Group" transform="translate(-1257 -2793)">
    <path id="Icon" d="M14.927-190c1.623,0,1.965.019,2.788.055a6.568,6.568,0,0,1,2.184.417,4.4,4.4,0,0,1,1.593,1.036,4.4,4.4,0,0,1,1.036,1.593,6.53,6.53,0,0,1,.417,2.184c.049.96.056,1.266.056,3.714s-.014,2.754-.056,3.714a6.567,6.567,0,0,1-.417,2.184,4.4,4.4,0,0,1-1.036,1.593,4.4,4.4,0,0,1-1.593,1.036,6.53,6.53,0,0,1-2.184.417c-.96.049-1.266.056-3.714.056s-2.754-.014-3.714-.056a6.568,6.568,0,0,1-2.184-.417,4.4,4.4,0,0,1-1.593-1.036A4.4,4.4,0,0,1,5.473-175.1a6.53,6.53,0,0,1-.417-2.184c-.04-.788-.052-1.136-.055-2.592v-2.049c0-1.623.019-1.965.055-2.788a6.567,6.567,0,0,1,.417-2.184,4.4,4.4,0,0,1,1.036-1.593A4.4,4.4,0,0,1,8.1-189.527a6.531,6.531,0,0,1,2.184-.417c.788-.04,1.136-.052,2.592-.055Zm-.011,2.25H13.29c-1.554,0-1.848.017-2.614.05a4.534,4.534,0,0,0-1.525.286,2.575,2.575,0,0,0-.947.617,2.548,2.548,0,0,0-.617.947,4.5,4.5,0,0,0-.286,1.525c-.037.726-.048,1.031-.05,2.409v1.625c0,1.554.017,1.848.05,2.614a4.533,4.533,0,0,0,.286,1.525,2.575,2.575,0,0,0,.617.947,2.547,2.547,0,0,0,.947.617,4.5,4.5,0,0,0,1.525.286c.864.044,1.125.051,3.324.051s2.454-.013,3.324-.051a4.535,4.535,0,0,0,1.526-.286,2.575,2.575,0,0,0,.947-.617,2.548,2.548,0,0,0,.617-.947,4.5,4.5,0,0,0,.286-1.525c.038-.864.051-1.131.051-3.324s-.013-2.454-.051-3.324a4.533,4.533,0,0,0-.286-1.525,2.575,2.575,0,0,0-.617-.947,2.547,2.547,0,0,0-.947-.617,4.5,4.5,0,0,0-1.526-.286C16.6-187.736,16.294-187.747,14.916-187.749ZM14-185.5a4.5,4.5,0,0,1,4.5,4.5,4.5,4.5,0,0,1-4.5,4.5A4.5,4.5,0,0,1,9.5-181,4.5,4.5,0,0,1,14-185.5Zm0,2.25A2.251,2.251,0,0,0,11.75-181a2.251,2.251,0,0,0,2.25,2.25,2.254,2.254,0,0,0,2.25-2.25A2.247,2.247,0,0,0,14-183.25Zm4.5-3.375a1.125,1.125,0,0,1,1.125,1.125,1.125,1.125,0,0,1-1.125,1.125,1.125,1.125,0,0,1-1.125-1.125A1.125,1.125,0,0,1,18.5-186.625Z" transform="translate(1267 2998)" fill="#eac7a1" fill-rule="evenodd"/>
    <g id="Oval" transform="translate(1257 2793)" fill="none" stroke="#eac7a1" stroke-miterlimit="10" stroke-width="1" opacity="0.398">
      <circle cx="24" cy="24" r="24" stroke="none"/>
      <circle cx="24" cy="24" r="23.5" fill="none"/>
    </g>
  </g>
</svg>
