<svg xmlns="http://www.w3.org/2000/svg" width="48" height="48" viewBox="0 0 48 48">
  <g id="Twitter_Group" data-name="Twitter Group" transform="translate(-1201 -2793)">
    <g id="Oval" transform="translate(1201 2793)" fill="none" opacity="0.403">
      <path d="M24,0A24,24,0,1,1,0,24,24,24,0,0,1,24,0Z" stroke="none"/>
      <path d="M 24 1 C 20.89458084106445 1 17.8825798034668 1.607978820800781 15.04766845703125 2.807041168212891 C 12.3089714050293 3.965419769287109 9.849151611328125 5.623939514160156 7.736549377441406 7.736549377441406 C 5.623939514160156 9.849151611328125 3.965419769287109 12.3089714050293 2.807041168212891 15.04766845703125 C 1.607978820800781 17.8825798034668 1 20.89458084106445 1 24 C 1 27.10541915893555 1.607978820800781 30.1174201965332 2.807041168212891 32.95233154296875 C 3.965419769287109 35.6910285949707 5.623939514160156 38.15084838867188 7.736549377441406 40.26345062255859 C 9.849151611328125 42.37606048583984 12.3089714050293 44.03458023071289 15.04766845703125 45.19295883178711 C 17.8825798034668 46.39202117919922 20.89458084106445 47 24 47 C 27.10541915893555 47 30.1174201965332 46.39202117919922 32.95233154296875 45.19295883178711 C 35.6910285949707 44.03458023071289 38.15084838867188 42.37606048583984 40.26345062255859 40.26345062255859 C 42.37606048583984 38.15084838867188 44.03458023071289 35.6910285949707 45.19295883178711 32.95233154296875 C 46.39202117919922 30.1174201965332 47 27.10541915893555 47 24 C 47 20.89458084106445 46.39202117919922 17.8825798034668 45.19295883178711 15.04766845703125 C 44.03458023071289 12.3089714050293 42.37606048583984 9.849151611328125 40.26345062255859 7.736549377441406 C 38.15084838867188 5.623939514160156 35.6910285949707 3.965419769287109 32.95233154296875 2.807041168212891 C 30.1174201965332 1.607978820800781 27.10541915893555 1 24 1 M 24 0 C 37.25482940673828 0 48 10.74517059326172 48 24 C 48 37.25482940673828 37.25482940673828 48 24 48 C 10.74517059326172 48 0 37.25482940673828 0 24 C 0 10.74517059326172 10.74517059326172 0 24 0 Z" stroke="none" fill="#eac7a1"/>
    </g>
    <path id="twitter" d="M18,1.776a7.25,7.25,0,0,1-2.121.6A3.788,3.788,0,0,0,17.5.278a7.28,7.28,0,0,1-2.346.918A3.641,3.641,0,0,0,12.464,0a3.768,3.768,0,0,0-3.6,4.649A10.405,10.405,0,0,1,1.254.694,3.85,3.85,0,0,0,2.4,5.749,3.617,3.617,0,0,1,.726,5.275a3.771,3.771,0,0,0,2.963,3.76A3.612,3.612,0,0,1,2.02,9.1a3.711,3.711,0,0,0,3.45,2.628A7.3,7.3,0,0,1,0,13.3,10.258,10.258,0,0,0,5.66,15c6.858,0,10.731-5.938,10.5-11.264A7.552,7.552,0,0,0,18,1.776Z" transform="translate(1216 2810)" fill="#eac7a1"/>
  </g>
</svg>
