<svg xmlns="http://www.w3.org/2000/svg" width="18" height="18" viewBox="0 0 18 18">
  <g id="calendar" transform="translate(3 3)">
    <path id="Path_21" data-name="Path 21" d="M210.58,162.19h18v18h-18Z" transform="translate(-213.58 -165.19)" fill="none"/>
    <path id="Path_22" data-name="Path 22" d="M36,1.114h-.75V-.25h-1.5V1.114h-7.5V-.25h-1.5V1.114H24a1.441,1.441,0,0,0-1.5,1.364V13.386A1.441,1.441,0,0,0,24,14.75H36a1.441,1.441,0,0,0,1.5-1.364V2.477A1.441,1.441,0,0,0,36,1.114Zm0,12.273H24v-7.5H36Zm0-8.864H24V2.477H36Z" transform="translate(-22.5 0.25)" fill="#2b2f3a"/>
  </g>
</svg>
