<svg id="Facebook_Group" data-name="Facebook Group" xmlns="http://www.w3.org/2000/svg" width="78.295" height="78.295" viewBox="0 0 78.295 78.295">
  <g id="Oval" fill="none" opacity="0.397">
    <path d="M39.147,0A39.147,39.147,0,1,1,0,39.147,39.147,39.147,0,0,1,39.147,0Z" stroke="none"/>
    <path d="M 39.14737701416016 1 C 33.99707794189453 1 29.0013542175293 2.008468627929688 24.29899978637695 3.997398376464844 C 19.75655364990234 5.918685913085938 15.67682266235352 8.669395446777344 12.17311096191406 12.17311096191406 C 8.669395446777344 15.67682266235352 5.918685913085938 19.75655364990234 3.997398376464844 24.29899978637695 C 2.008468627929688 29.0013542175293 1 33.99707794189453 1 39.14737701416016 C 1 44.29767608642578 2.008468627929688 49.29339981079102 3.997398376464844 53.99575424194336 C 5.918685913085938 58.53820037841797 8.669395446777344 62.6179313659668 12.17311096191406 66.12164306640625 C 15.67682266235352 69.62535095214844 19.75655364990234 72.37606811523438 24.29899978637695 74.29735565185547 C 29.0013542175293 76.28628540039062 33.99707794189453 77.29475402832031 39.14737701416016 77.29475402832031 C 44.29767608642578 77.29475402832031 49.29339981079102 76.28628540039062 53.99575424194336 74.29735565185547 C 58.53820037841797 72.37606811523438 62.6179313659668 69.62535095214844 66.12164306640625 66.12164306640625 C 69.62535095214844 62.6179313659668 72.37606811523438 58.53820037841797 74.29735565185547 53.99575424194336 C 76.28628540039062 49.29339981079102 77.29475402832031 44.29767608642578 77.29475402832031 39.14737701416016 C 77.29475402832031 33.99707794189453 76.28628540039062 29.0013542175293 74.29735565185547 24.29899978637695 C 72.37606811523438 19.75655364990234 69.62535095214844 15.67682266235352 66.12164306640625 12.17311096191406 C 62.6179313659668 8.669395446777344 58.53820037841797 5.918685913085938 53.99575424194336 3.997398376464844 C 49.29339981079102 2.008468627929688 44.29767608642578 1 39.14737701416016 1 M 39.14737701416016 0 C 60.76787567138672 0 78.29475402832031 17.52687835693359 78.29475402832031 39.14737701416016 C 78.29475402832031 60.76787567138672 60.76787567138672 78.29475402832031 39.14737701416016 78.29475402832031 C 17.52687835693359 78.29475402832031 0 60.76787567138672 0 39.14737701416016 C 0 17.52687835693359 17.52687835693359 0 39.14737701416016 0 Z" stroke="none" fill="#2b2f3a"/>
  </g>
  <path id="facebook" d="M4.194,9.787H0V14.68H4.194v14.68h6.292V14.68H14.3l.377-4.893H10.486V7.749c0-1.17.2-1.632,1.17-1.632H14.68V0H9.639C5.868,0,4.194,1.938,4.194,5.647Z" transform="translate(32.623 24.467)" fill="#2b2f3a"/>
</svg>
