<svg xmlns="http://www.w3.org/2000/svg" width="15" height="18" viewBox="0 0 15 18">
  <path id="Icon" d="M15.75-24C10.691-24,8-20.838,8-17.392a4.8,4.8,0,0,0,2.383,4.225c.222.1.344.056.394-.146.043-.153.236-.889.329-1.237a.311.311,0,0,0-.079-.313,4.037,4.037,0,0,1-.873-2.488c0-2.4,1.961-4.739,5.3-4.739,2.884,0,4.9,1.828,4.9,4.44,0,2.953-1.6,5-3.686,5a1.623,1.623,0,0,1-1.739-1.973A20.9,20.9,0,0,0,15.9-18.26,1.411,1.411,0,0,0,14.419-19.8a2.4,2.4,0,0,0-2.125,2.654,3.712,3.712,0,0,0,.351,1.619S11.485-10.95,11.271-10.1a11.832,11.832,0,0,0,.086,3.989.123.123,0,0,0,.222.056,14.064,14.064,0,0,0,1.911-3.509c.143-.514.73-2.6.73-2.6a3.217,3.217,0,0,0,2.691,1.251c3.535,0,6.09-3.03,6.09-6.789C22.986-21.3,19.823-24,15.75-24" transform="translate(-8 24)" fill="#2b2f3a" fill-rule="evenodd"/>
</svg>
