<svg xmlns="http://www.w3.org/2000/svg" width="18" height="22" viewBox="0 0 18 22">
  <g id="light_bulb" transform="translate(3 3)">
    <path id="Path_7" data-name="Path 7" d="M210.58,162.19h18v22h-18Z" transform="translate(-213.58 -165.19)" fill="none"/>
    <path id="Path_8" data-name="Path 8" d="M78.429,15.2a.832.832,0,0,0,.857.8h3.429a.832.832,0,0,0,.857-.8v-.8H78.429ZM81,0a5.817,5.817,0,0,0-6,5.6,5.5,5.5,0,0,0,2.571,4.592V12a.832.832,0,0,0,.857.8h5.143a.832.832,0,0,0,.857-.8V10.192A5.5,5.5,0,0,0,87,5.6,5.817,5.817,0,0,0,81,0Zm2.443,8.88-.729.48V11.2H79.286V9.36l-.729-.48A3.862,3.862,0,0,1,76.91,4.4a4.384,4.384,0,0,1,8.18,0A3.862,3.862,0,0,1,83.443,8.88Z" transform="translate(-75)" fill="#2b2f3a"/>
  </g>
</svg>
