<svg id="Pintrest_Group" data-name="Pintrest Group" xmlns="http://www.w3.org/2000/svg" width="78.295" height="78.295" viewBox="0 0 78.295 78.295">
  <path id="Icon" d="M21.191-190c2.647.006,3.206.031,4.548.089a10.713,10.713,0,0,1,3.562.681,7.175,7.175,0,0,1,2.6,1.691,7.174,7.174,0,0,1,1.69,2.6,10.652,10.652,0,0,1,.681,3.563c.079,1.566.091,2.065.091,6.058s-.023,4.493-.091,6.058a10.712,10.712,0,0,1-.681,3.563,7.175,7.175,0,0,1-1.69,2.6,7.175,7.175,0,0,1-2.6,1.691,10.652,10.652,0,0,1-3.562.681c-1.566.079-2.065.091-6.058.091s-4.493-.023-6.058-.091a10.712,10.712,0,0,1-3.562-.681,7.175,7.175,0,0,1-2.6-1.691,7.175,7.175,0,0,1-1.69-2.6,10.652,10.652,0,0,1-.681-3.562c-.065-1.286-.085-1.852-.089-4.227v-3.342c.006-2.647.031-3.205.089-4.547a10.712,10.712,0,0,1,.681-3.562,7.174,7.174,0,0,1,1.69-2.6,7.175,7.175,0,0,1,2.6-1.691,10.652,10.652,0,0,1,3.562-.681c1.286-.065,1.853-.085,4.227-.089Zm-.018,3.67H18.522c-2.535,0-3.014.027-4.264.082a7.4,7.4,0,0,0-2.488.467,4.2,4.2,0,0,0-1.545,1.006,4.156,4.156,0,0,0-1.006,1.545,7.334,7.334,0,0,0-.467,2.488c-.061,1.184-.078,1.681-.082,3.93v2.651c0,2.535.027,3.014.082,4.264a7.394,7.394,0,0,0,.467,2.488,4.2,4.2,0,0,0,1.006,1.545,4.155,4.155,0,0,0,1.545,1.006,7.335,7.335,0,0,0,2.488.467c1.41.073,1.835.083,5.422.083s4-.021,5.422-.083a7.4,7.4,0,0,0,2.488-.467,4.2,4.2,0,0,0,1.545-1.006,4.156,4.156,0,0,0,1.006-1.545,7.334,7.334,0,0,0,.467-2.488c.062-1.41.083-1.846.083-5.422s-.021-4-.083-5.422a7.4,7.4,0,0,0-.467-2.488,4.2,4.2,0,0,0-1.006-1.545,4.155,4.155,0,0,0-1.545-1.006,7.334,7.334,0,0,0-2.488-.467C23.919-186.308,23.422-186.325,21.173-186.329Zm-1.493,3.669a7.344,7.344,0,0,1,7.34,7.341,7.344,7.344,0,0,1-7.34,7.34,7.344,7.344,0,0,1-7.34-7.34A7.344,7.344,0,0,1,19.681-182.66Zm0,3.67a3.671,3.671,0,0,0-3.67,3.67,3.671,3.671,0,0,0,3.67,3.67,3.677,3.677,0,0,0,3.67-3.67A3.666,3.666,0,0,0,19.681-178.99Zm7.34-5.505a1.835,1.835,0,0,1,1.835,1.835,1.835,1.835,0,0,1-1.835,1.835,1.835,1.835,0,0,1-1.835-1.835A1.835,1.835,0,0,1,27.021-184.5Z" transform="translate(19.467 215.114)" fill="#2b2f3a" fill-rule="evenodd"/>
  <g id="Oval" transform="translate(0 0)" fill="none" stroke="#2b2f3a" stroke-miterlimit="10" stroke-width="1" opacity="0.398">
    <circle cx="39.147" cy="39.147" r="39.147" stroke="none"/>
    <circle cx="39.147" cy="39.147" r="38.647" fill="none"/>
  </g>
</svg>
