<svg id="Twitter_Group" data-name="Twitter Group" xmlns="http://www.w3.org/2000/svg" width="78.295" height="78.295" viewBox="0 0 78.295 78.295">
  <g id="Oval" fill="none" opacity="0.403">
    <path d="M39.147,0A39.147,39.147,0,1,1,0,39.147,39.147,39.147,0,0,1,39.147,0Z" stroke="none"/>
    <path d="M 39.14737701416016 1 C 33.99707794189453 1 29.0013542175293 2.008468627929688 24.29899978637695 3.997398376464844 C 19.75655364990234 5.918685913085938 15.67682266235352 8.669395446777344 12.17311096191406 12.17311096191406 C 8.669395446777344 15.67682266235352 5.918685913085938 19.75655364990234 3.997398376464844 24.29899978637695 C 2.008468627929688 29.0013542175293 1 33.99707794189453 1 39.14737701416016 C 1 44.29767608642578 2.008468627929688 49.29339981079102 3.997398376464844 53.99575424194336 C 5.918685913085938 58.53820037841797 8.669395446777344 62.6179313659668 12.17311096191406 66.12164306640625 C 15.67682266235352 69.62535095214844 19.75655364990234 72.37606811523438 24.29899978637695 74.29735565185547 C 29.0013542175293 76.28628540039062 33.99707794189453 77.29475402832031 39.14737701416016 77.29475402832031 C 44.29767608642578 77.29475402832031 49.29339981079102 76.28628540039062 53.99575424194336 74.29735565185547 C 58.53820037841797 72.37606811523438 62.6179313659668 69.62535095214844 66.12164306640625 66.12164306640625 C 69.62535095214844 62.6179313659668 72.37606811523438 58.53820037841797 74.29735565185547 53.99575424194336 C 76.28628540039062 49.29339981079102 77.29475402832031 44.29767608642578 77.29475402832031 39.14737701416016 C 77.29475402832031 33.99707794189453 76.28628540039062 29.0013542175293 74.29735565185547 24.29899978637695 C 72.37606811523438 19.75655364990234 69.62535095214844 15.67682266235352 66.12164306640625 12.17311096191406 C 62.6179313659668 8.669395446777344 58.53820037841797 5.918685913085938 53.99575424194336 3.997398376464844 C 49.29339981079102 2.008468627929688 44.29767608642578 1 39.14737701416016 1 M 39.14737701416016 0 C 60.76787567138672 0 78.29475402832031 17.52687835693359 78.29475402832031 39.14737701416016 C 78.29475402832031 60.76787567138672 60.76787567138672 78.29475402832031 39.14737701416016 78.29475402832031 C 17.52687835693359 78.29475402832031 0 60.76787567138672 0 39.14737701416016 C 0 17.52687835693359 17.52687835693359 0 39.14737701416016 0 Z" stroke="none" fill="#2b2f3a"/>
  </g>
  <path id="twitter" d="M29.361,2.9a11.825,11.825,0,0,1-3.46.973A6.178,6.178,0,0,0,28.551.454a11.874,11.874,0,0,1-3.827,1.5A5.939,5.939,0,0,0,20.33,0a6.146,6.146,0,0,0-5.87,7.584A16.973,16.973,0,0,1,2.045,1.131,6.28,6.28,0,0,0,3.91,9.377,5.9,5.9,0,0,1,1.184,8.6a6.151,6.151,0,0,0,4.832,6.134,5.892,5.892,0,0,1-2.721.105,6.053,6.053,0,0,0,5.627,4.287A11.909,11.909,0,0,1,0,21.693a16.733,16.733,0,0,0,9.231,2.775c11.186,0,17.5-9.686,17.122-18.374a12.318,12.318,0,0,0,3.007-3.2Z" transform="translate(24.467 27.729)" fill="#2b2f3a"/>
</svg>
