<svg xmlns="http://www.w3.org/2000/svg" width="18.006" height="18" viewBox="0 0 18.006 18">
  <g id="favorite" transform="translate(3.04 3)">
    <path id="Path_11" data-name="Path 11" d="M210.58,162.19h18v18h-18Z" transform="translate(-213.62 -165.19)" fill="none"/>
    <path id="Path_12" data-name="Path 12" d="M12.874,22.5A4.348,4.348,0,0,0,9.5,24.208,4.348,4.348,0,0,0,6.126,22.5,4.281,4.281,0,0,0,2,27c0,3.09,2.551,5.608,6.413,9.433L9.5,37.5l1.089-1.079C14.449,32.6,17,30.086,17,27a4.28,4.28,0,0,0-4.126-4.5Zm-3.3,12.711-.075.082-.075-.082C5.856,31.688,3.5,29.358,3.5,27a2.686,2.686,0,0,1,2.625-2.861A2.939,2.939,0,0,1,8.8,26.064h1.4a2.92,2.92,0,0,1,2.669-1.929A2.686,2.686,0,0,1,15.5,27c0,2.358-2.356,4.688-5.925,8.211Z" transform="translate(-2.04 -22.5)" fill="#fff"/>
  </g>
</svg>
