<svg xmlns="http://www.w3.org/2000/svg" width="15.002" height="15.002" viewBox="0 0 15.002 15.002">
  <path id="Icon" d="M625.53-43.771l-2.121-.242a1.662,1.662,0,0,0-1.369.476L620.5-42a12.563,12.563,0,0,1-5.5-5.5l1.545-1.545a1.662,1.662,0,0,0,.476-1.369l-.242-2.1A1.671,1.671,0,0,0,615.118-54h-1.445a1.657,1.657,0,0,0-1.208.5A1.657,1.657,0,0,0,612-52.272,14.188,14.188,0,0,0,625.271-39a1.657,1.657,0,0,0,1.224-.465,1.657,1.657,0,0,0,.5-1.208v-1.445a1.655,1.655,0,0,0-1.47-1.653Z" transform="translate(-611.998 54)" fill="#fff" fill-rule="evenodd"/>
</svg>
