<svg xmlns="http://www.w3.org/2000/svg" width="15.002" height="17.996" viewBox="0 0 15.002 17.996">
  <path id="Icon" d="M15.75-24C10.691-24,8-20.838,8-17.392a4.8,4.8,0,0,0,2.383,4.225c.222.1.344.056.394-.146.043-.153.236-.889.329-1.237a.311.311,0,0,0-.079-.313,4.037,4.037,0,0,1-.873-2.488c0-2.4,1.961-4.739,5.3-4.739,2.884,0,4.9,1.828,4.9,4.44,0,2.953-1.6,5-3.686,5a1.623,1.623,0,0,1-1.373-.542,1.623,1.623,0,0,1-.366-1.431A20.9,20.9,0,0,0,15.9-18.26a1.411,1.411,0,0,0-.388-1.109,1.411,1.411,0,0,0-1.093-.431,2.4,2.4,0,0,0-1.613.886,2.4,2.4,0,0,0-.512,1.768,3.712,3.712,0,0,0,.351,1.619s-1.16,4.577-1.374,5.427a11.832,11.832,0,0,0,.086,3.989.123.123,0,0,0,.092.1.123.123,0,0,0,.13-.048A14.064,14.064,0,0,0,13.49-9.564c.143-.514.73-2.6.73-2.6a3.217,3.217,0,0,0,2.691,1.251c3.535,0,6.09-3.03,6.09-6.789-.015-3.6-3.178-6.3-7.251-6.3" transform="translate(-7.999 24)" fill="#fff" fill-rule="evenodd"/>
</svg>
