<svg xmlns="http://www.w3.org/2000/svg" width="18" height="18" viewBox="0 0 18 18">
  <path id="Icon" d="M298.991-55A9,9,0,0,0,290-46a9,9,0,0,0,8.991,9A9.005,9.005,0,0,0,308-46a9.005,9.005,0,0,0-9.009-9ZM299-38.8a7.2,7.2,0,0,1-7.2-7.2,7.2,7.2,0,0,1,7.2-7.2,7.2,7.2,0,0,1,7.2,7.2A7.2,7.2,0,0,1,299-38.8Zm-.2-11.7h-.054a.645.645,0,0,0-.459.189.645.645,0,0,0-.189.459V-45.6a.891.891,0,0,0,.441.774l3.735,2.241a.642.642,0,0,0,.882-.216.639.639,0,0,0,.076-.493.639.639,0,0,0-.3-.4l-3.483-2.07v-4.086a.645.645,0,0,0-.189-.459.645.645,0,0,0-.459-.189Z" transform="translate(-290 55)" fill="#fff" fill-rule="evenodd"/>
</svg>
